<svg width="560" height="354" viewBox="0 0 560 354" fill="none" xmlns="http://www.w3.org/2000/svg">
<path d="M275.656 92.0568L290.116 100.459H304.81L283.003 87.7861L275.656 92.0568Z" fill="#7A6145"/>
<path d="M283.003 87.786L304.809 100.459H339.657L300.427 77.6606L283.003 87.786Z" fill="#BC946B"/>
<path d="M444.622 260.752L444.648 269.303L473.265 252.78V252.732H458.509L444.622 260.752Z" fill="#917252"/>
<path d="M430.832 252.732H428.561L422.351 256.348L444.647 269.303L444.623 260.752L430.832 252.732Z" fill="#7A6145"/>
<path d="M458.509 252.733H430.832L444.622 260.753L458.509 252.733Z" fill="#BC946B"/>
<path d="M376.673 308.841L405.288 292.321L405.26 283.763L376.645 300.286L376.673 308.841Z" fill="#917252"/>
<path d="M361.691 291.597L354.345 295.865L376.673 308.841L376.645 300.286L361.691 291.597Z" fill="#7A6145"/>
<path d="M297.004 254.002L294.819 252.733H280.127L289.66 258.274L297.004 254.002Z" fill="#7A6145"/>
<path d="M376.644 300.286L405.26 283.763L390.215 275.019L361.691 291.597L376.644 300.286Z" fill="#BC946B"/>
<path d="M294.819 252.732L297.004 254.001L299.192 252.732H294.819Z" fill="#BC946B"/>
<path d="M308.691 348.376L337.303 331.856L337.282 323.301L308.667 339.824L308.691 348.376Z" fill="#917252"/>
<path d="M186.336 268.73L178.988 273.003L221.653 297.795L228.999 293.526L186.336 268.73Z" fill="#7A6145"/>
<path d="M293.684 331.117L286.34 335.39L308.692 348.375L308.668 339.823L293.684 331.117Z" fill="#7A6145"/>
<path d="M308.668 339.824L337.283 323.301L322.209 314.542L293.684 331.117L308.668 339.824Z" fill="#BC946B"/>
<path d="M186.336 268.73L228.999 293.526L246.42 283.397L203.757 258.609L186.336 268.73Z" fill="#BC946B"/>
<path d="M213.379 302.602L213.302 328.516L255.871 353.093L255.944 327.177L213.379 302.602Z" fill="#7A6145"/>
<path d="M401.406 252.732L405.261 254.975L405.288 263.53L376.673 280.052L356.85 268.538L324.714 287.214L337.282 294.516L337.304 303.067L308.692 319.588L288.845 308.058L255.944 327.176L255.872 353.094L286.34 335.39L293.684 331.116L322.21 314.542L354.345 295.866L361.692 291.596L390.214 275.019L422.35 256.348L428.561 252.732H401.406Z" fill="#917252"/>
<path d="M288.845 308.058L246.421 283.397L228.998 293.526L221.653 297.795L213.378 302.602L255.944 327.177L288.845 308.058Z" fill="#BC946B"/>
<path d="M289.66 258.274L282.291 262.557L324.715 287.214L356.851 268.537L329.664 252.733H299.191L297.004 254.002L289.66 258.274Z" fill="#BC946B"/>
<path d="M128.029 252.732H106.153L106.115 266.038L148.682 290.616L148.757 264.7L128.029 252.732Z" fill="#7A6145"/>
<path d="M454.231 100.459L454.264 87.1551L431.377 100.459H454.231Z" fill="#917252"/>
<path d="M203.758 258.609L193.654 252.733H169.349L148.757 264.7L148.682 290.617L178.989 273.004L186.337 268.73L203.758 258.609Z" fill="#917252"/>
<path d="M431.378 100.459L454.264 87.1551L411.7 62.5818L378.958 81.6098L411.394 100.459H431.378Z" fill="#BC946B"/>
<path d="M169.349 252.733H128.029L148.757 264.701L169.349 252.733Z" fill="#BC946B"/>
<path d="M336.293 56.8172L347.005 50.5932L347.081 24.6785L314.034 43.8812L336.293 56.8172Z" fill="#917252"/>
<path d="M283.003 87.786L300.427 77.6606L278.164 64.726L246.029 83.402L268.289 96.338L275.656 92.0566L283.003 87.786Z" fill="#917252"/>
<path d="M347.081 24.6778L304.513 0.101828L271.606 19.2232L314.034 43.8805L347.081 24.6778Z" fill="#BC946B"/>
<path d="M203.645 100.459L167.731 79.5925L135.595 98.2645L139.37 100.459H203.645Z" fill="#BC946B"/>
<path d="M278.164 64.7261L235.737 40.0701L203.601 58.7448L246.028 83.4021L278.164 64.7261Z" fill="#BC946B"/>
<path d="M278.164 64.7261L300.427 77.6608L339.657 100.459H354.348L223.147 24.2141L223.173 32.7674L235.737 40.0701L278.164 64.7261Z" fill="#7A6145"/>
<path d="M354.348 100.459H411.393L378.957 81.6098L336.293 56.8178L314.034 43.8805L271.605 19.2231L251.764 7.69382L223.148 24.2138L354.348 100.459Z" fill="#BC946B"/>
<path d="M203.645 100.459H218.335L155.169 63.7525L155.193 72.3058L167.731 79.5925L203.645 100.459Z" fill="#7A6145"/>
<path d="M218.335 100.459H275.385L268.289 96.3378L246.029 83.4018L203.601 58.7445L183.785 47.2285L155.168 63.7525L218.335 100.459Z" fill="#BC946B"/>
<path d="M376.645 271.498L376.673 280.053L405.287 263.529L405.261 254.974L376.645 271.498Z" fill="#917252"/>
<path d="M376.673 280.053L376.645 271.498L344.355 252.733H329.664L356.851 268.537L376.673 280.053Z" fill="#7A6145"/>
<path d="M376.645 271.498L405.261 254.974L401.406 252.733H344.354L376.645 271.498Z" fill="#BC946B"/>
<path d="M139.37 100.459L135.595 98.2645L115.806 86.7658L92.0831 100.459H139.37Z" fill="#BC946B"/>
<path d="M308.668 311.036L308.692 319.588L337.304 303.067L337.283 294.516L308.668 311.036Z" fill="#917252"/>
<path d="M246.421 283.397L288.845 308.058L308.691 319.589L308.669 311.035L208.342 252.733H193.654L203.758 258.609L246.421 283.397Z" fill="#7A6145"/>
<path d="M308.668 311.036L337.283 294.516L324.715 287.215L282.291 262.557L265.391 252.732H208.343L308.668 311.036Z" fill="#BC946B"/>
<path d="M114.462 122.001H150.26L193.822 182.762V122.409L194.166 122.001H214.497L214.902 122.409V202.859L214.497 203.266H178.817C178.046 202.454 163.621 182.261 135.548 142.679L135.314 142.506V142.331H135.145V202.859L134.737 203.266H114.462L114.058 202.859V122.409L114.462 122.001Z" fill="#006838"/>
<path d="M223.534 119.567H254.062C255.373 120.88 264.429 132.099 281.229 153.222L281.398 153.452H281.634C298.97 131.636 308.085 120.34 308.971 119.567H339.499L339.727 119.74H339.906L294.609 174.306V202.859L294.202 203.266H268.601L268.251 202.859V174.306L223.129 119.974L223.534 119.567Z" fill="#006838"/>
<path d="M403.056 119.683C403.521 119.991 409.464 130.804 420.897 152.12L448.645 202.631L448.412 202.803H419.969C419.583 202.803 417.152 198.476 412.673 189.827L411.687 188.668H384.576L381.797 188.847L379.251 188.668H365.692V188.266L375.54 170.772H387.129L390.255 170.598L393.441 170.772H402.245V170.598C392.168 151.792 386.799 141.963 386.141 141.114L352.951 202.803H324.452L324.048 202.396L369.633 119.858L369.808 119.683H403.056Z" fill="#006838"/>
<path d="M457.33 121.131H543.113C550.953 121.131 556.206 125.343 558.87 133.759C559.139 135.38 559.395 136.346 559.623 136.654V155.48L558.464 159.939C555.529 167.354 550.491 171.062 543.348 171.062H498.86L482.527 154.73V154.554H535.935V139.204H480.616V139.379L480.444 203.094L480.208 203.267H457.33L456.922 202.859V121.539L457.33 121.131Z" fill="#006838"/>
<path d="M103.863 135.579V121.074L103.457 120.667H80.6367L80.23 121.074V121.56L103.863 135.579Z" fill="#006838"/>
<path d="M80.2306 135.83V186.646H24.3906V135.83H0.759888V186.066L1.33856 190.584C3.92522 199.038 9.33189 203.266 17.5572 203.266H87.0639C90.2319 203.266 93.0919 202.556 95.6359 201.126C101.12 197.416 103.864 192.396 103.864 186.066V135.83H80.2306Z" fill="#006838"/>
<path d="M24.3907 135.619V121.074L23.9853 120.667H1.16134L0.76001 121.074V121.602L24.3907 135.619Z" fill="#006838"/>
<path d="M94.112 232.772C98.5893 232.772 102.897 230.825 102.897 226.208C102.897 221.586 98.5893 219.644 94.112 219.644C89.6373 219.644 85.3293 221.586 85.3293 226.208C85.3293 230.825 89.6373 232.772 94.112 232.772ZM94.112 218.188C99.9013 218.188 105.179 220.817 105.179 226.208C105.179 231.594 99.9013 234.221 94.112 234.221C88.3253 234.221 83.0507 231.594 83.0507 226.208C83.0507 220.817 88.3253 218.188 94.112 218.188Z" fill="#7A6145"/>
<path d="M119.142 225.67H128.067C130.379 225.67 132.459 225.031 132.459 222.701C132.459 220.475 130.206 220.025 128.267 220.025H119.142V225.67ZM117.031 218.574H128.125C131.574 218.574 134.738 219.493 134.738 222.701C134.738 224.323 133.37 225.949 130.747 226.402V226.442C133.629 226.785 134.226 228.175 134.37 230.673C134.454 231.637 134.569 233.495 135.11 233.838H132.829C132.402 233.517 132.287 232.406 132.258 230.714C132.173 228.023 130.862 227.126 127.329 227.126H119.142L119.171 233.838H117.062L117.031 218.574Z" fill="#7A6145"/>
<path d="M167.585 218.574H170.578L170.607 233.838H168.497L168.469 220.644H168.411L159.455 233.838H157.518L148.535 220.623H148.481L148.506 233.838H146.397L146.37 218.574H149.447L158.515 231.85L167.585 218.574Z" fill="#7A6145"/>
<path d="M191.272 220.154L186.739 227.746H195.748L191.272 220.154ZM196.605 229.196H185.884L183.145 233.838H180.864L190.076 218.573H192.527L201.795 233.838H199.343L196.605 229.196Z" fill="#7A6145"/>
<path d="M212.026 218.574H214.565L228.793 231.615H228.85V218.574H230.961L230.989 233.838H228.534L214.194 220.796H214.137L214.163 233.838H212.054L212.026 218.574Z" fill="#7A6145"/>
<path d="M271.297 214.703H273.409V217.056H271.297V214.703ZM264.881 214.703H266.963V217.056H264.881V214.703ZM278.056 227.937C278.056 230.743 277.028 234.221 268.96 234.221C260.891 234.221 259.864 230.743 259.864 227.937V218.573H261.973V227.937C261.973 231.936 265.423 232.772 268.96 232.772C272.496 232.772 275.945 231.936 275.945 227.937V218.573H278.056V227.937Z" fill="#7A6145"/>
<path d="M292.935 225.67H301.862C304.171 225.67 306.252 225.031 306.252 222.701C306.252 220.475 303.999 220.025 302.059 220.025H292.935V225.67ZM290.827 218.574H301.918C305.368 218.574 308.53 219.493 308.53 222.701C308.53 224.323 307.163 225.949 304.54 226.402V226.442C307.422 226.785 308.019 228.175 308.164 230.673C308.246 231.637 308.364 233.495 308.903 233.838H306.626C306.196 233.517 306.079 232.406 306.052 230.714C305.966 228.023 304.654 227.126 301.118 227.126H292.935L292.966 233.838H290.854L290.827 218.574Z" fill="#7A6145"/>
<path d="M331.707 214.703H333.819V217.056H331.707V214.703ZM325.295 214.703H327.373V217.056H325.295V214.703ZM338.468 227.937C338.468 230.743 337.441 234.221 329.373 234.221C321.303 234.221 320.277 230.743 320.277 227.937V218.573H322.385V227.937C322.385 231.936 325.833 232.772 329.373 232.772C332.908 232.772 336.359 231.936 336.359 227.937V218.573H338.468V227.937Z" fill="#7A6145"/>
<path d="M350.895 218.574H353.433L367.659 231.615H367.721V218.574H369.825L369.857 233.838H367.404L353.061 220.796H353.007L353.033 233.838H350.923L350.895 218.574Z" fill="#7A6145"/>
<path d="M382.139 218.574H384.251V232.384H397.167L397.193 233.838H382.167L382.139 218.574Z" fill="#7A6145"/>
<path d="M407.939 218.574H424.136V220.024H410.051V225.2H423.624V226.656H410.051V232.384H424.364L424.394 233.838H407.97L407.939 218.574Z" fill="#7A6145"/>
<path d="M438.134 225.67H447.058C449.367 225.67 451.447 225.031 451.447 222.701C451.447 220.475 449.195 220.025 447.259 220.025H438.134V225.67ZM436.022 218.574H447.113C450.565 218.574 453.729 219.493 453.729 222.701C453.729 224.323 452.359 225.949 449.737 226.402V226.442C452.618 226.785 453.215 228.175 453.361 230.673C453.442 231.637 453.559 233.495 454.099 233.838H451.822C451.393 233.517 451.275 232.406 451.249 230.714C451.165 228.023 449.85 227.126 446.317 227.126H438.134L438.162 233.838H436.05L436.022 218.574Z" fill="#7A6145"/>
<path d="M465.583 218.574H467.695L467.722 233.838H465.614L465.583 218.574ZM465.583 214.703H467.695V217.056H465.583V214.703Z" fill="#7A6145"/>
</svg>
